<svg width="256" height="321" viewBox="0 0 256 321" fill="none" xmlns="http://www.w3.org/2000/svg">
<g clip-path="url(#clip0_821_2)">
<path d="M218.524 57.681L209.91 290.176C209.764 294.165 206.249 297.545 202.244 297.545H53.4679C49.466 297.545 45.9473 294.152 45.8013 290.176L37.1877 57.681C36.951 51.2662 31.5578 46.2588 25.1429 46.4954C18.7281 46.7354 13.7207 52.1253 13.9573 58.5403L22.5675 291.036C23.1805 307.507 36.9603 320.791 53.4676 320.791H202.243C218.744 320.791 232.53 307.53 233.143 291.036L241.754 58.5403C241.99 52.1255 236.983 46.7354 230.568 46.4954C224.153 46.2587 218.76 51.266 218.523 57.681H218.524Z" fill="white"/>
<path d="M118.557 104.605V262.679C118.557 267.816 122.717 271.977 127.854 271.977C132.991 271.977 137.152 267.816 137.152 262.679V104.605C137.152 99.4682 132.991 95.3076 127.854 95.3076C122.717 95.3076 118.557 99.4684 118.557 104.605Z" fill="white"/>
<path d="M67.4142 104.879L72.0648 262.953C72.2172 268.087 76.498 272.128 81.6314 271.975C86.7652 271.826 90.8062 267.542 90.6535 262.409L86.0029 104.334C85.8537 99.2011 81.5697 95.16 76.4362 95.3128C71.3025 95.462 67.2648 99.746 67.4142 104.879Z" fill="white"/>
<path d="M169.706 104.331L165.055 262.405C164.903 267.539 168.944 271.823 174.077 271.972C179.211 272.124 183.492 268.084 183.644 262.95L188.294 104.876C188.444 99.7418 184.406 95.4575 179.272 95.3089C174.139 95.1565 169.854 99.1973 169.706 104.331Z" fill="white"/>
<path d="M11.6231 62.7618H244.085C250.503 62.7618 255.708 57.56 255.708 51.1387C255.708 44.7207 250.503 39.5156 244.085 39.5156H11.6231C5.20508 39.5156 0 44.7207 0 51.1387C0 57.56 5.20508 62.7618 11.6231 62.7618Z" fill="white"/>
<path d="M92.5367 47.3611L97.3754 30.4196C98.4131 26.7938 103.115 23.246 106.894 23.246H148.813C152.591 23.246 157.294 26.7906 158.332 30.4196L163.17 47.3611L185.522 40.9723L180.683 24.0341C176.791 10.4226 162.969 0 148.813 0H106.894C92.7378 0 78.9129 10.4268 75.0241 24.0341L70.1855 40.9723L92.5367 47.3611Z" fill="white"/>
</g>
<defs>
<clipPath id="clip0_821_2">
<rect width="256" height="321" fill="white"/>
</clipPath>
</defs>
</svg>
